<?xml version="1.0" encoding="UTF-8"?>
<svg id="Art" xmlns="http://www.w3.org/2000/svg" viewBox="0 0 11 11">
  <path d="M6.27,8.72s-.04,0-.06-.02l-.7-.51-.7,.51s-.09,.03-.13,0c-.04-.03-.05-.08-.04-.12l.27-.83-.7-.51s-.05-.08-.04-.12c.01-.04,.06-.08,.1-.08h.87l.27-.83c.03-.09,.18-.09,.21,0l.27,.83h.87s.09,.03,.1,.08c.01,.05,0,.09-.04,.12l-.7,.51,.27,.83s0,.09-.04,.12c-.02,.01-.04,.02-.06,.02Zm-.77-.78s.04,0,.06,.02l.49,.36-.19-.58s0-.09,.04-.12l.49-.36h-.61s-.09-.03-.1-.08l-.19-.58-.19,.58s-.06,.08-.1,.08h-.61l.49,.36s.05,.08,.04,.12l-.19,.58,.49-.36s.04-.02,.06-.02Zm3.65-4.69l-.65-1.62s-.05-.07-.09-.07H2.59s-.07,.03-.09,.07l-.65,1.62s0,.08,.02,.11l2.23,2.9c-.31,.34-.5,.79-.5,1.28,0,1.05,.85,1.9,1.9,1.9s1.9-.85,1.9-1.9c0-.49-.19-.94-.5-1.28l2.23-2.9s.03-.07,.02-.11Zm-.98-1.47l-1.07,1.4H3.9l-1.07-1.4h5.34Zm-1.24,1.62l-1.43,1.87-1.43-1.87h2.86ZM2.64,1.89l2.87,3.75s0,0,0,0c-.48,0-.91,.18-1.25,.47L2.08,3.27l.56-1.38Zm2.86,7.33c-.93,0-1.68-.75-1.68-1.68s.75-1.68,1.68-1.68,1.68,.75,1.68,1.68-.75,1.68-1.68,1.68Zm1.25-3.11c-.26-.23-.58-.38-.94-.44l-.17-.22,2.73-3.55,.55,1.38-2.17,2.83Z"/>
</svg>