<?xml version="1.0" encoding="UTF-8"?>
<svg id="Art" xmlns="http://www.w3.org/2000/svg" viewBox="0 0 11 11">
  <path d="M8.05,8.93h-.46v-.62c0-.06-.05-.11-.11-.11h-.74l.7-3.57s0-.07-.02-.09c-.02-.03-.05-.04-.08-.04h-.79c.55-.35,.9-.96,.9-1.63,0-1.08-.88-1.95-1.95-1.95s-1.95,.88-1.95,1.95c0,.67,.35,1.28,.9,1.63h-.79s-.06,.01-.08,.04c-.02,.03-.03,.06-.02,.09l.7,3.57h-.74c-.06,0-.11,.05-.11,.11v.62h-.46c-.06,0-.11,.05-.11,.11v.92c0,.06,.05,.11,.11,.11h5.11c.06,0,.11-.05,.11-.11v-.92c0-.06-.05-.11-.11-.11Zm-1.89-4.47c-.56-.29-.93-.85-.97-1.48h.86c.05,.45,.37,.83,.81,.95-.18,.23-.42,.41-.7,.53Zm.83-.73c-.39-.07-.68-.37-.72-.75h.95c-.02,.27-.1,.52-.23,.75Zm0-1.72c.13,.22,.21,.48,.23,.75h-.96c.05-.38,.34-.68,.73-.75Zm-.13-.2c-.45,.12-.77,.49-.82,.95h-.86c.04-.63,.42-1.2,.99-1.48,.27,.12,.51,.3,.69,.53Zm-2.4-.33c.29-.22,.65-.35,1.03-.35,.13,0,.26,.02,.39,.05-.54,.35-.89,.93-.92,1.58h-.5V1.49Zm-.22,2.57c-.27-.29-.44-.67-.47-1.07h.47v1.07Zm0-1.3h-.47c.03-.42,.2-.79,.47-1.08v1.08Zm.22,1.49s0,0,0,0v-1.26h.5c.03,.61,.35,1.17,.84,1.52h-.87c-.17-.06-.33-.14-.48-.25Zm-.67,.47h3.41l-.68,3.48h-2.04l-.68-3.48Zm4.15,5.13H3.06v-.7h.46c.06,0,.11-.05,.11-.11v-.62h3.74v.62c0,.06,.05,.11,.11,.11h.46v.7Z"/>
</svg>