<?xml version="1.0" encoding="UTF-8"?>
<svg id="Art" xmlns="http://www.w3.org/2000/svg" viewBox="0 0 11 11">
  <path d="M8.15,3.47s0,0,0,0l-.54-1.05s-.03-.04-.06-.05l-2.01-.74s-.05,0-.08,0l-2.01,.74s-.05,.03-.06,.05l-.54,1.05s0,0,0,0c0,0,0,.02,0,.03,0,0,0,.01,0,.02,0,0,0,0,0,0v3.2c0,1.47,1.2,2.66,2.66,2.66s2.66-1.19,2.66-2.66V3.52s0-.03-.01-.05Zm-.28-.06h-.48l-.56-1.07,.6,.22,.44,.85Zm-.73,0h-.86l.43-.82,.43,.82Zm-1.65-1.56l1.15,.42s-.02,.02-.03,.03l-.51,.98-.51-.98s-.06-.06-.1-.06-.08,.02-.1,.06l-.51,.98-.51-.98s-.02-.02-.03-.03l1.15-.42Zm.43,1.56h-.86l.43-.82,.43,.82Zm-1.22,0h-.86l.43-.82,.43,.82Zm-1.15-.85l.6-.22-.56,1.07h-.48l.44-.85ZM7.94,6.72c0,1.35-1.09,2.44-2.44,2.44s-2.44-1.09-2.44-2.44V3.63H7.94v3.09Z"/>
  <path d="M5.5,4.76c-1.08,0-1.97,.88-1.97,1.97s.88,1.96,1.97,1.96,1.96-.88,1.96-1.96-.88-1.97-1.96-1.97Zm0,3.71c-.96,0-1.75-.78-1.75-1.74s.78-1.75,1.75-1.75,1.74,.78,1.74,1.75-.78,1.74-1.74,1.74Z"/>
</svg>